<svg xmlns="http://www.w3.org/2000/svg" version="1.1" xmlns:xlink="http://www.w3.org/1999/xlink" viewBox="0 0 200 200"><rect width="200" height="200" fill="url('#gradient')"></rect><defs><linearGradient id="gradient" gradientTransform="rotate(181 0.5 0.5)"><stop offset="0%" stop-color="#4c5e9b"></stop><stop offset="100%" stop-color="#263f52"></stop></linearGradient></defs><g><g fill="#d13a1e" transform="matrix(3.0626145682585624,0,0,3.0626145682585624,3.71096644724733,116.43213565704964)" stroke="#ad5c26" stroke-width="0.2"><path d="M12.95-14.22L12.95 0L9.54 0L4.50-8.85L4.50 0L1.07 0L1.07-14.22L4.50-14.22L9.53-5.37L9.53-14.22L12.95-14.22ZM21.36 0L21.26-1.14Q20.21 0.20 18.44 0.20L18.44 0.20Q16.70 0.20 15.81-0.82Q14.91-1.83 14.91-3.72L14.91-3.72L14.91-10.57L18.20-10.57L18.20-3.70Q18.20-2.34 19.52-2.34L19.52-2.34Q20.65-2.34 21.13-3.15L21.13-3.15L21.13-10.57L24.44-10.57L24.44 0L21.36 0ZM28.82-10.57L30.46-3.92L32.13-10.57L35.60-10.57L32.15 0L28.79 0L25.34-10.57L28.82-10.57ZM40.05-15L40.05 0L36.75 0L36.75-15L40.05-15ZM44.63-10.57L46.30-4.61L48.06-10.57L51.58-10.57L47.28 1.77L47.09 2.22Q46.17 4.27 43.85 4.27L43.85 4.27Q43.20 4.27 42.49 4.07L42.49 4.07L42.49 1.72L42.92 1.72Q43.61 1.72 43.98 1.52Q44.35 1.32 44.52 0.80L44.52 0.80L44.79 0.10L41.11-10.57L44.63-10.57ZM55.23-10.57L56.72-7.66L58.25-10.57L61.67-10.57L58.89-5.42L61.81 0L58.37 0L56.71-3.13L55.08 0L51.62 0L54.55-5.42L51.78-10.57L55.23-10.57Z"></path></g></g></svg>